# xmcd
#
# Track frame offsets: 
#        150
#        19697
#        37335
#        53487
#        68875
#        83342
#        98745
#        114822
#        133330
#        148547
#        167400
#        182490
#
# Disc length: 2623 seconds
#
# Revision: 3
# Processed by: cddbd v1.5.2PL0 Copyright (c) Steve Scherf et al.
# Submitted via: ExactAudioCopy v1.0b4
#
DISCID=920a3d0c
DTITLE=Various Artist - Real Luv
DYEAR=1996
DGENRE=Country
TTITLE0=Vince Gill - Whenever You Come Around
TTITLE1=John Berry - Your Love Amazes Me
TTITLE2=Wynonna - Only Love
TTITLE3=Billy Dean - It's What I Do
TTITLE4=Alan Jackson - I'd Love You All Over Again
TTITLE5=Patty Loveless - You Saved Me
TTITLE6=George Straight - Baby Blue
TTITLE7=John Michael Montgomery - Rope the Moon
TTITLE8=Bryan White - Someone Else's Star
TTITLE9=Tanya Tucker - Two Sparrows in a Hurricane
TTITLE10=Jeff Carson - Not on Your Love
TTITLE11=George Jones - Walls Can Fall
EXTD=
EXTT0=
EXTT1=
EXTT2=
EXTT3=
EXTT4=
EXTT5=
EXTT6=
EXTT7=
EXTT8=
EXTT9=
EXTT10=
EXTT11=
PLAYORDER=
